<svg width="70" height="80" viewBox="0 0 70 80" fill="none" xmlns="http://www.w3.org/2000/svg">
<path d="M13.068 57.22C13.524 57.22 13.884 57.376 14.148 57.688C14.424 57.988 14.538 58.384 14.49 58.876L13.716 68.614C13.668 69.07 13.506 69.436 13.23 69.712C12.966 69.976 12.612 70.108 12.168 70.108C11.748 70.108 11.406 69.976 11.142 69.712C10.89 69.436 10.788 69.076 10.836 68.632L11.25 63.34L8.928 67.138C8.688 67.522 8.448 67.798 8.208 67.966C7.968 68.134 7.692 68.218 7.38 68.218C7.068 68.218 6.804 68.134 6.588 67.966C6.372 67.798 6.174 67.522 5.994 67.138L4.248 63.538L3.834 68.614C3.81 69.058 3.654 69.418 3.366 69.694C3.078 69.97 2.712 70.108 2.268 70.108C1.848 70.108 1.512 69.976 1.26 69.712C1.02 69.448 0.918 69.088 0.954 68.632L1.728 58.84C1.776 58.36 1.956 57.97 2.268 57.67C2.58 57.37 2.964 57.22 3.42 57.22C4.08 57.22 4.572 57.58 4.896 58.3L7.65 64.402L11.43 58.318C11.658 57.958 11.91 57.688 12.186 57.508C12.462 57.316 12.756 57.22 13.068 57.22ZM22.0643 61.846C22.2083 61.546 22.4003 61.324 22.6403 61.18C22.8803 61.024 23.1383 60.946 23.4143 60.946C23.7983 60.946 24.1403 61.072 24.4403 61.324C24.7403 61.564 24.8903 61.864 24.8903 62.224C24.8903 62.416 24.8363 62.62 24.7283 62.836L19.6703 72.466C19.5023 72.778 19.3043 73.006 19.0763 73.15C18.8483 73.294 18.6023 73.366 18.3383 73.366C17.9903 73.366 17.6843 73.24 17.4203 72.988C17.1683 72.748 17.0423 72.448 17.0423 72.088C17.0423 71.836 17.1023 71.59 17.2223 71.35L18.1583 69.478L15.7643 62.782C15.7163 62.674 15.6923 62.548 15.6923 62.404C15.6923 62.008 15.8723 61.666 16.2323 61.378C16.5923 61.078 16.9883 60.928 17.4203 60.928C17.6963 60.928 17.9423 61.006 18.1583 61.162C18.3743 61.306 18.5363 61.528 18.6443 61.828L20.0303 66.112L22.0643 61.846ZM29.7686 59.902L29.5886 62.242H33.5666C34.5146 62.242 34.9886 62.638 34.9886 63.43C34.9886 63.934 34.8566 64.294 34.5926 64.51C34.3286 64.726 33.9026 64.834 33.3146 64.834H29.3906L29.1026 68.452C29.0546 68.956 28.8686 69.358 28.5446 69.658C28.2326 69.958 27.8306 70.108 27.3386 70.108C26.8466 70.108 26.4566 69.958 26.1686 69.658C25.8926 69.358 25.7786 68.962 25.8266 68.47L26.5826 58.84C26.6306 58.348 26.7986 57.97 27.0866 57.706C27.3746 57.442 27.7586 57.31 28.2386 57.31H34.3046C35.2766 57.31 35.7626 57.718 35.7626 58.534C35.7626 59.014 35.6246 59.362 35.3486 59.578C35.0846 59.794 34.6646 59.902 34.0886 59.902H29.7686ZM40.5031 70.144C39.5191 70.144 38.6611 69.964 37.9291 69.604C37.1971 69.244 36.6331 68.734 36.2371 68.074C35.8411 67.402 35.6431 66.628 35.6431 65.752C35.6431 64.756 35.8471 63.898 36.2551 63.178C36.6631 62.446 37.2331 61.888 37.9651 61.504C38.7091 61.12 39.5731 60.928 40.5571 60.928C41.5411 60.928 42.3991 61.108 43.1311 61.468C43.8631 61.828 44.4271 62.338 44.8231 62.998C45.2191 63.658 45.4171 64.426 45.4171 65.302C45.4171 66.31 45.2131 67.18 44.8051 67.912C44.3971 68.632 43.8211 69.184 43.0771 69.568C42.3451 69.952 41.4871 70.144 40.5031 70.144ZM40.4491 67.786C41.0851 67.786 41.5411 67.546 41.8171 67.066C42.1051 66.586 42.2491 65.974 42.2491 65.23C42.2491 64.57 42.1111 64.084 41.8351 63.772C41.5711 63.448 41.1631 63.286 40.6111 63.286C39.9751 63.286 39.5131 63.526 39.2251 64.006C38.9491 64.474 38.8111 65.074 38.8111 65.806C38.8111 66.478 38.9431 66.976 39.2071 67.3C39.4831 67.624 39.8971 67.786 40.4491 67.786ZM51.2961 70.144C50.3121 70.144 49.4541 69.964 48.7221 69.604C47.9901 69.244 47.4261 68.734 47.0301 68.074C46.6341 67.402 46.4361 66.628 46.4361 65.752C46.4361 64.756 46.6401 63.898 47.0481 63.178C47.4561 62.446 48.0261 61.888 48.7581 61.504C49.5021 61.12 50.3661 60.928 51.3501 60.928C52.3341 60.928 53.1921 61.108 53.9241 61.468C54.6561 61.828 55.2201 62.338 55.6161 62.998C56.0121 63.658 56.2101 64.426 56.2101 65.302C56.2101 66.31 56.0061 67.18 55.5981 67.912C55.1901 68.632 54.6141 69.184 53.8701 69.568C53.1381 69.952 52.2801 70.144 51.2961 70.144ZM51.2421 67.786C51.8781 67.786 52.3341 67.546 52.6101 67.066C52.8981 66.586 53.0421 65.974 53.0421 65.23C53.0421 64.57 52.9041 64.084 52.6281 63.772C52.3641 63.448 51.9561 63.286 51.4041 63.286C50.7681 63.286 50.3061 63.526 50.0181 64.006C49.7421 64.474 49.6041 65.074 49.6041 65.806C49.6041 66.478 49.7361 66.976 50.0001 67.3C50.2761 67.624 50.6901 67.786 51.2421 67.786ZM65.995 57.22C66.487 57.22 66.871 57.358 67.147 57.634C67.435 57.898 67.567 58.246 67.543 58.678L66.769 68.632C66.733 69.076 66.565 69.436 66.265 69.712C65.965 69.976 65.575 70.108 65.095 70.108C64.675 70.108 64.339 70.006 64.087 69.802C63.835 69.586 63.685 69.304 63.637 68.956C63.349 69.34 62.977 69.634 62.521 69.838C62.077 70.042 61.573 70.144 61.009 70.144C60.265 70.144 59.605 69.976 59.029 69.64C58.465 69.292 58.021 68.8 57.697 68.164C57.385 67.528 57.229 66.772 57.229 65.896C57.229 64.936 57.409 64.078 57.769 63.322C58.129 62.566 58.627 61.978 59.263 61.558C59.911 61.138 60.655 60.928 61.495 60.928C62.587 60.928 63.445 61.306 64.069 62.062L64.339 58.606C64.363 58.198 64.525 57.868 64.825 57.616C65.137 57.352 65.527 57.22 65.995 57.22ZM62.125 67.786C62.665 67.786 63.091 67.57 63.403 67.138C63.715 66.706 63.871 66.142 63.871 65.446C63.871 64.738 63.727 64.204 63.439 63.844C63.151 63.472 62.737 63.286 62.197 63.286C61.645 63.286 61.207 63.502 60.883 63.934C60.559 64.366 60.397 64.948 60.397 65.68C60.397 66.352 60.547 66.874 60.847 67.246C61.147 67.606 61.573 67.786 62.125 67.786Z" fill="white"/>
<path d="M34.848 13.92C36.064 13.92 37.024 14.336 37.728 15.168C38.464 15.968 38.768 17.024 38.64 18.336L36.576 44.304C36.448 45.52 36.016 46.496 35.28 47.232C34.576 47.936 33.632 48.288 32.448 48.288C31.328 48.288 30.416 47.936 29.712 47.232C29.04 46.496 28.768 45.536 28.896 44.352L30 30.24L23.808 40.368C23.168 41.392 22.528 42.128 21.888 42.576C21.248 43.024 20.512 43.248 19.68 43.248C18.848 43.248 18.144 43.024 17.568 42.576C16.992 42.128 16.464 41.392 15.984 40.368L11.328 30.768L10.224 44.304C10.16 45.488 9.744 46.448 8.976 47.184C8.208 47.92 7.232 48.288 6.048 48.288C4.928 48.288 4.032 47.936 3.36 47.232C2.72 46.528 2.448 45.568 2.544 44.352L4.608 18.24C4.736 16.96 5.216 15.92 6.048 15.12C6.88 14.32 7.904 13.92 9.12 13.92C10.88 13.92 12.192 14.88 13.056 16.8L20.4 33.072L30.48 16.848C31.088 15.888 31.76 15.168 32.496 14.688C33.232 14.176 34.016 13.92 34.848 13.92ZM53.4143 21.072L52.9343 27.312H63.5423C66.0703 27.312 67.3343 28.368 67.3343 30.48C67.3343 31.824 66.9823 32.784 66.2783 33.36C65.5743 33.936 64.4383 34.224 62.8703 34.224H52.4062L51.6383 43.872C51.5103 45.216 51.0143 46.288 50.1503 47.088C49.3183 47.888 48.2463 48.288 46.9343 48.288C45.6223 48.288 44.5823 47.888 43.8143 47.088C43.0783 46.288 42.7743 45.232 42.9023 43.92L44.9183 18.24C45.0463 16.928 45.4943 15.92 46.2623 15.216C47.0303 14.512 48.0543 14.16 49.3343 14.16H65.5103C68.1023 14.16 69.3983 15.248 69.3983 17.424C69.3983 18.704 69.0303 19.632 68.2943 20.208C67.5903 20.784 66.4703 21.072 64.9343 21.072H53.4143Z" fill="white"/>
</svg>
